# xmcd
#
# Track frame offsets:
#	150
#	5715
#	24790
#	42530
#	61312
#	80745
#	101577
#	114515
#	131525
#	151592
#	172037
#	191700
#	202355
#
# Disc length: 2969 seconds
#
# Revision: 2
# Processed by: cddbd v1.5.1PL0 Copyright (c) Steve Scherf et al.
# Submitted via: audiograbber 1.82.02
#
DISCID=b00b970d
DTITLE=Schooly D - Welcome To America
DYEAR=1994
DGENRE=Rap
TTITLE0=Intro
TTITLE1=I Wanna Get Dusted
TTITLE2=I Know You Want To Kill Me
TTITLE3=Welcome To America
TTITLE4=Niggas Like Me
TTITLE5=Gansta Trippin
TTITLE6=Gimmie Your Shit Nigga
TTITLE7=No Good Nigga
TTITLE8=I Shot Da Bitch
TTITLE9=Motherfuckin D
TTITLE10=Stop Frontin
TTITLE11=Peace Of What
TTITLE12=Another Sign
EXTD=
EXTT0=
EXTT1=
EXTT2=
EXTT3=
EXTT4=
EXTT5=
EXTT6=
EXTT7=
EXTT8=
EXTT9=
EXTT10=
EXTT11=
EXTT12=
PLAYORDER=
